<?xml version="1.0" encoding="utf-8"?>
<!-- Generator: Adobe Illustrator 18.1.1, SVG Export Plug-In . SVG Version: 6.00 Build 0)  -->
<svg version="1.1" id="Layer_1" xmlns="http://www.w3.org/2000/svg" xmlns:xlink="http://www.w3.org/1999/xlink" x="0px" y="0px"
	 viewBox="0 0 88 65" enable-background="new 0 0 88 65" xml:space="preserve">
<line fill="#00A77F" x1="97.3" y1="-41" x2="96.8" y2="-41"/>
<line fill="#00A77F" x1="96.8" y1="87.4" x2="97.3" y2="87.4"/>
<g>
	<defs>
		<rect id="SVGID_1_" x="-21.1" y="-48.8" width="252" height="144"/>
	</defs>
	<clipPath id="SVGID_2_">
		<use xlink:href="#SVGID_1_"  overflow="visible"/>
	</clipPath>
	<g id="XMLID_1_" clip-path="url(#SVGID_2_)">
		<g>
			<polygon fill="#C0C9C7" points="75.2,55.6 76.7,57.3 76.5,57.3 75.1,55.7 74.4,56.4 74.4,57.3 74.2,57.3 74.2,52.9 74.4,52.9 
				74.4,56.3 76.4,54.3 76.6,54.3 			"/>
			<path fill="#00A77F" d="M76.5,46v2c-0.5,0.5-1.3,0.9-2.2,0.9c-1.8,0-2.8-1.3-2.8-2.9v0c0-1.5,1.1-2.9,2.8-2.9
				c0.9,0,1.4,0.3,1.9,0.7L76.1,44c-0.5-0.4-1-0.7-1.8-0.7c-1.6,0-2.6,1.4-2.6,2.7v0c0,1.4,1,2.7,2.6,2.7c0.8,0,1.5-0.4,2-0.8v-1.8
				h-2.1V46H76.5z"/>
			<path fill="#C0C9C7" d="M73,54.2v0.1h0c-0.8,0-1.2,0.8-1.2,1.4v1.5h-0.1v-3h0.1v1C71.9,54.8,72.3,54.2,73,54.2z"/>
			<path fill="#00A77F" d="M69.1,20.2c11.2,2.3,9,20.5-2.4,15.8c-1.8-0.8-4.6-4-6.5-6.9c0-0.1,0-0.3,0-0.5c1.5,1.6,2.3,3.2,4.7,4.5
				c8.5,4.4,13.5-10.2,4-12.5v0L69.1,20.2z"/>
			<path fill="#C0C9C7" d="M70.1,55.8L70.1,55.8c0,0.8-0.6,1.6-1.6,1.6c-0.9,0-1.6-0.7-1.6-1.6v0c0-0.8,0.6-1.6,1.6-1.6
				S70.1,55,70.1,55.8z M70,55.8L70,55.8c0-0.8-0.6-1.5-1.4-1.5c-0.8,0-1.4,0.7-1.4,1.5v0c0,0.8,0.6,1.4,1.4,1.4
				C69.4,57.3,70,56.6,70,55.8z"/>
			<path fill="#00A77F" d="M69.5,25.6c0.6,1-4.4,2.2-4.4,2.2s3.7-1.4,3.8-1.8c0.1-0.4-1.9-0.3-3.4-1.3c-0.5-0.4-1.3-1.3-1.3-2.3
				c-0.1-1.4,1-2.3,2.3-2.4c0.9-0.1,1.7,0,2.6,0.1l-0.3,0.4c-0.7-0.2-2.5-0.3-3.4,0.3c-1,0.7-0.7,2-0.3,2.6
				C66,25.2,69,24.7,69.5,25.6z"/>
			<polygon fill="#00A77F" points="66.9,43.2 66.9,48.8 66.8,48.8 62.5,43.5 62.5,48.8 62.4,48.8 62.4,43.2 62.5,43.2 66.8,48.5 
				66.8,43.2 			"/>
			<polygon fill="#C0C9C7" points="66.6,53.1 64.8,55.6 64.8,57.3 64.7,57.3 64.7,55.6 62.9,53.1 63.1,53.1 64.8,55.4 66.4,53.1 			
				"/>
			<path fill="#00A77F" d="M59.9,13.1h4c0,0-3,6-3.5,11.4c-0.1,1.5-0.2,2.9-0.2,4.1c-0.7-0.5-1.5-0.9-2.2-1.4
				c0.3-0.5-0.2-0.1-0.2-0.1l-0.4-0.1l0.9-4.6C57.7,23,56.9,25,54.8,25c-2.7,0-2.5-3.2-2.5-4.3c0-0.5,0.1-1,0.2-1.7
				c0,0,1-2.3,0.9-4.2c0-0.2,0-0.3,0-0.5c-0.1-0.9-0.5-1.5-0.5-1.5l4,0.3l-1.2,6.5c0,0.2-0.7,2.6,0.4,2.8c0,0-0.1,0-0.2,0
				c0.1,0,0.3,0,0.4,0c1.2,0.1,1.6-0.8,2-1.4c0.3-0.5,0.6-1.4,0.8-2L59.9,13.1z"/>
			<path fill="#00A77F" d="M60.2,28.6c0,0.2,0,0.3,0,0.5c-0.6-0.6-1.4-1.1-2.5-1.5c0.1-0.2,0.2-0.3,0.3-0.4
				C58.7,27.7,59.5,28.1,60.2,28.6z"/>
			<polygon fill="#C0C9C7" points="59.6,54.3 58.6,57.3 58.5,57.3 57.5,54.5 56.5,57.3 56.4,57.3 55.4,54.3 55.5,54.3 56.5,57.1 
				57.4,54.3 57.5,54.3 58.5,57.1 59.5,54.3 			"/>
			<path fill="#00A77F" d="M59.6,13.1l-1,5.9c-0.2,0.7-0.5,1.5-0.8,2c-0.4,0.6-0.8,1.4-1.7,1.4c-0.1,0-0.1,0-0.2,0
				c0.8-0.2,1.1-0.9,1.5-1.4c0.3-0.5,0.6-1.4,0.8-2l1-5.9H59.6z"/>
			<path fill="#00A77F" d="M42.9,25.9c-2.6,0.1-5.1,0.5-6.9,1.4c-1.4,0.8-3,2.1-2.9,3.7c0.2,1.9,1,2.5,2.3,2.4
				c2.8,0.7,9.4-3.9,17.3-4c0.9,0,1.9,0.1,2.8,0.2c0,0,0.1,0,0.1,0c-0.7-0.1-1.3-0.2-1.9-0.2c0.9,0,1.7,0.1,2.6,0.2
				c0.4,0.1,1-1.9,0.8-2c-1.9-0.8-14.8-3.4-20.3-0.3c-1.4,0.8-3,2.1-2.9,3.7c0.1,1.4,0.6,2.1,1.4,2.3c-1-0.1-1.7-0.8-1.8-2.4
				c-0.1-1.6,1.5-2.9,2.9-3.7C38.1,26.4,40.4,26,42.9,25.9z M60.1,29.1c-0.2,5.4-0.1,7.8-1.5,5.8c-6.4-9.2-16.7-1.1-22.6,0.5
				c-2.5,0.7-7.6-1-7-5.1c0.6-4.2,4.8-5.6,9.9-5.8c8-0.2,18,2.8,18.4,2.6l0-0.2l0.4,0.1c0.1,0,0.1,0.1,0.2,0.1
				c0,0.1-0.1,0.2-0.3,0.4C58.7,27.9,59.5,28.4,60.1,29.1z"/>
			<path fill="#00A77F" d="M58.7,35.1c0.9,1.2-0.1,0.6-0.5,0.1c-5.8-8.6-16.2-0.5-22.1,1.2c-2.5,0.7-7.5-0.7-7-4.7
				c0.4,3.3,4.8,4.6,7,4c2.4-0.7,5.4-2.3,8.7-3.5c1.7-0.5,3.6-1,5.6-1.3C53.4,30.7,56.2,31.8,58.7,35.1z"/>
			<path fill="#00A77F" d="M57.7,27c0,0,0.4-0.4,0.2,0.1C57.9,27.1,57.8,27.1,57.7,27z"/>
			<rect x="57.3" y="43.2" fill="#00A77F" width="0.2" height="5.6"/>
			<path fill="#00A77F" d="M55.7,29.6c0,0-0.1,0-0.1,0c-1-0.1-1.9-0.2-2.8-0.2c0,0,0,0,0.1,0c0.3,0,0.6,0,0.9,0
				C54.4,29.4,55,29.5,55.7,29.6z"/>
			<path fill="#C0C9C7" d="M54.3,55.8L54.3,55.8l-2.7,0c0,0.9,0.6,1.4,1.4,1.4c0.5,0,0.9-0.3,1.1-0.6l0.1,0.1
				c-0.3,0.4-0.7,0.7-1.2,0.7c-0.8,0-1.5-0.6-1.5-1.6v0c0-0.9,0.6-1.6,1.4-1.6C53.9,54.2,54.3,55.1,54.3,55.8z M51.6,55.7h2.5
				c0-0.7-0.5-1.4-1.2-1.4C52.2,54.4,51.6,55,51.6,55.7z"/>
			<path fill="#00A77F" d="M54.2,25c-0.1,0-0.1,0-0.2,0c-2.7,0-2.5-3.2-2.5-4.3c0-0.5,0.2-1.2,0.4-1.8c0.2-0.4,0.8-1.4,0.8-1.5
				c-0.8,2.2-0.8,2.9-0.8,3.4C51.9,21.8,51.8,24.8,54.2,25z"/>
			<path fill="#00A77F" d="M51.5,14.4c0,0.1,0,0.1,0,0.1c-0.1,1-1,1-1.1,1c-0.3,0-0.5-0.2-0.7-0.4c-0.2-0.3-0.2-0.6-0.2-0.9
				c0-0.4,0.1-0.7,0.4-1c0.3-0.3,0.7-0.4,1.2-0.4c0.3,0,0.6,0.1,0.8,0.2c0.2,0.1,0.4,0.3,0.5,0.5s0.2,0.4,0.3,0.7
				c0,0.2,0.1,0.4,0.1,0.7c0,0.1,0,0.1,0,0.2c-0.4,4.9-5.7,5.1-7.5,8.7c-0.4,0.8-1-2-1.7-4.2c0-0.1,0.1-0.3,0.2-0.5h-0.3
				c0,0,0,0,0,0c0,0,0,0-0.1,0h-0.7c-0.1,0.4-0.3,0.7-0.4,0.9c-0.1,0.3-0.3,0.5-0.4,0.7c0.4-0.7,0.9-1.1,1-3.7
				c0.1-1.8-1.4-3.8-1.4-3.8h3c0,0,1,6.1,2,6.1c0.7,0,5.2-1.2,5.1-4.8L51.5,14.4C51.5,14.4,51.5,14.4,51.5,14.4z"/>
			<path fill="#00A77F" d="M52.6,46L52.6,46c0,1.6-1.2,2.8-3,2.8h-1.8v-5.6h1.8C51.4,43.2,52.6,44.4,52.6,46z M52.4,46L52.4,46
				c0-1.5-1.2-2.6-2.8-2.6H48v5.3h1.6C51.3,48.7,52.4,47.5,52.4,46z"/>
			<polygon fill="#C0C9C7" points="49.9,53.1 49.9,57.3 49.8,57.3 46.6,53.3 46.6,57.3 46.5,57.3 46.5,53.1 46.6,53.1 49.8,57.1 
				49.8,53.1 			"/>
			<path fill="#00A77F" d="M43.7,19c-0.1,0.2-0.1,0.3-0.2,0.5c-0.1-0.2-0.1-0.3-0.2-0.5H43.7z"/>
			<path fill="#00A77F" d="M43.4,19c0.1,0.2,0.1,0.3,0.2,0.5c-0.3,0.9-0.7,1.6-1,2.1c-0.4,0.6-0.8,1.1-1.3,1.5
				c-0.4,0.3-0.9,0.5-1.3,0.7c-0.4,0.1-0.8,0.1-1.1,0.1c-0.6,0-1.1-0.1-1.5-0.2c-0.4-0.2-0.7-0.4-1-0.7c-0.2-0.3-0.4-0.6-0.5-1
				c-0.1-0.4-0.2-0.7-0.2-1.1c0-0.4,0.5-1.9,0.7-2.5c0.1-0.6,0.2-1.1,0.2-1.5c0-0.9-0.3-1.3-1-1.3c-0.5,0-0.9,0.2-1.2,0.7
				c-0.3,0.5-0.6,1-0.8,1.7c0,0,0.2,5.1-0.8,6.5c-0.4,0.6-1.5,0.9-2.4,1.7c-1.5,1.5-1.6,2.4-2.2,3.1c-0.7,0.8-3,1.6-3.8,1
				c-1.2-1,0.6-3.6,0.8-3.9c-0.1,0.3-0.8,2.2,0,2.6c-0.1,0-0.1,0-0.2,0c0.1,0,0.2,0,0.3,0c0.3,0,0.7,0,1.3-0.4
				c6.3-3.2,3.2-14.2,3.2-14.2s1.1,0.4,2.1,0.4c0.3,0,0.5,0,0.8-0.1c1.1-0.3,1.8-1,1.8-1l-0.3,1c0.6-0.6,1.1-1,1.7-1.2
				c0.5-0.2,1-0.3,1.4-0.3c0.8,0,1.5,0.2,2.1,0.7c0.5,0.5,0.8,1.2,0.8,2.3c0,0.5-0.1,1.1-0.2,1.7s-0.7,2-0.7,2.4
				c0,0.3,0.1,0.6,0.2,0.8c0.2,0.2,0.4,0.3,0.8,0.3c0.3,0,0.5,0,0.8-0.2c0.2-0.1,0.4-0.3,0.6-0.5c0,0,0,0,0,0
				C41.8,20.7,43,19.2,43.4,19L43.4,19z"/>
			<path fill="#00A77F" d="M42.6,19h0.7c-0.3,0.3-1.5,1.7-1.5,1.7v0c0,0,0,0,0,0c0.2-0.2,0.3-0.4,0.4-0.7
				C42.4,19.6,42.5,19.3,42.6,19z"/>
			<polygon fill="#00A77F" points="42.9,43.2 42.9,48.8 42.8,48.8 38.5,43.5 38.5,48.8 38.4,48.8 38.4,43.2 38.5,43.2 42.8,48.5 
				42.8,43.2 			"/>
			<path fill="#C0C9C7" d="M42.6,57v0.3c0,0.3-0.1,0.4-0.2,0.5l0-0.1c0.1-0.1,0.2-0.2,0.1-0.4h-0.1V57H42.6z"/>
			<path fill="#00A77F" d="M41.1,13.1c0,0,1.4,2,1.4,3.8c-0.1,1.5-0.2,2.2-0.4,2.7c-0.4,0.5-0.9,1-0.9,1v0c0.4-0.7,0.9-1.1,1-3.7
				c0.1-1.8-1.4-3.8-1.4-3.8H41.1z"/>
			<polygon fill="#C0C9C7" points="39.6,55.6 41.1,57.3 41,57.3 39.5,55.7 38.8,56.4 38.8,57.3 38.7,57.3 38.7,52.9 38.8,52.9 
				38.8,56.3 40.9,54.3 41.1,54.3 			"/>
			<path fill="#C0C9C7" d="M37.4,54.2v0.1h0c-0.8,0-1.2,0.8-1.2,1.4v1.5h-0.1v-3h0.1v1C36.3,54.8,36.8,54.2,37.4,54.2z"/>
			<path fill="#00A77F" d="M35.2,6.5c0.3,0.6,0.5,1.4,0.5,2.2c0,1.2-0.1,2.2-0.6,3.1c-0.5,0.9-1.3,1.8-2.3,1.9c-0.2,0-0.4,0-0.6,0
				c-5.3-0.3-2.2-7.7,0.7-5.2c0.5,0.7,0.4,1.6-0.5,2.1c-1,0.5-2-0.5-1.9-1.6c0-0.2-1,1.7-0.4,2.7c0.8,1.2,3,1.3,3.8,0.2
				c1.4-1.9,0.8-5.5-3.8-5.9c-0.6-0.1-4.6,0.3-5.6,4.8c-1,4.6,2.8,6.9,3.5,7c-1.1,0.2-9.4,4.5-10,10.2c-0.7,7,8.6,3.5,10.3,2.2
				c-1.4,3.9-18.1,10.9-15.6-1.6c1.2-6.2,9.1-10.9,10.3-11.2c-0.9-0.6-1.5-1.4-1.9-2.2c-0.4-0.9-0.6-1.8-0.6-2.7
				c0-1.1,0.2-2.1,0.7-3.2c0.5-1.1,1.1-2,1.9-2.9C24,5.6,25,4.9,26.1,4.4c1.1-0.5,2.3-0.8,3.6-0.8c0.8,0,1.6,0.1,2.3,0.3
				c0.7,0.2,1.3,0.5,1.9,1C34.4,5.4,34.9,5.9,35.2,6.5z"/>
			<path fill="#C0C9C7" d="M34.6,55.8L34.6,55.8c0,0.8-0.6,1.6-1.6,1.6c-0.9,0-1.6-0.7-1.6-1.6v0c0-0.8,0.6-1.6,1.6-1.6
				S34.6,55,34.6,55.8z M34.4,55.8L34.4,55.8c0-0.8-0.6-1.5-1.4-1.5s-1.4,0.7-1.4,1.5v0c0,0.8,0.6,1.4,1.4,1.4S34.4,56.6,34.4,55.8z
				"/>
			<path fill="#00A77F" d="M31.4,43.2l2.7,5.6h-0.2l-0.8-1.7h-3.6l-0.8,1.7h-0.2l2.7-5.6H31.4z M33,47l-1.7-3.6L29.6,47H33z"/>
			<polygon fill="#C0C9C7" points="31,53.1 29.3,55.6 29.3,57.3 29.1,57.3 29.1,55.6 27.4,53.1 27.5,53.1 29.2,55.4 30.9,53.1 			
				"/>
			<path fill="#00A77F" d="M29.7,14.4c0.3,1.2,2.7,11.1-3.3,14.1c-0.4,0.2-0.7,0.3-1,0.3c0,0,0,0-0.1,0c0,0-0.1,0-0.1,0
				c0.2-0.1,0.5-0.1,0.8-0.3c6.3-3.2,3.2-14.2,3.2-14.2S29.5,14.3,29.7,14.4z"/>
			<path fill="#00A77F" d="M27.3,3.6c0.3,0,0.2,0.1,0,0.1c-0.5,0.1-0.9,0.3-1.7,0.7c-1.1,0.5-2.1,1.2-2.9,2.1
				c-0.8,0.9-1.4,1.8-1.9,2.9c-0.4,1-0.7,2.1-0.7,3.2c0,0.9,0.2,1.8,0.6,2.7c0.4,0.9,1,1.6,1.9,2.2c-1.2,0.3-9,5-10.3,11.2
				c-1,4.5,0.1,6.4,2.1,6.9c-1,0.5-4.3-0.8-3-6.9c1.3-6.2,9.1-10.9,10.3-11.2c-0.9-0.6-1.5-1.4-1.9-2.2c-0.4-0.9-0.6-1.8-0.6-2.7
				c0-1.1,0.2-2.1,0.7-3.2c0.4-1.1,1.1-2,1.9-2.9c0.8-0.8,1.8-1.5,2.9-2.1C25.8,3.9,27,3.6,27.3,3.6z"/>
			<path fill="#00A77F" d="M24.6,30.3c-0.4,0-0.7,0-0.8-0.2c-1.3-1,0.6-3.7,0.8-3.9c-0.1,0.1-0.2,0.6-0.3,1.1
				c-0.5,0.9-0.9,2.2-0.1,2.8C24.3,30.2,24.4,30.3,24.6,30.3z"/>
			<path fill="#00A77F" d="M22.6,46.4l1.9,2.5h-0.2l-1.9-2.4h0h-2.1v2.4h-0.2v-5.6h2.3c0.7,0,1.3,0.2,1.6,0.5c0.2,0.2,0.4,0.6,0.4,1
				v0C24.4,45.7,23.7,46.3,22.6,46.4z M24.2,44.8L24.2,44.8c0-0.9-0.7-1.4-1.9-1.4h-2.1v2.8h2C23.6,46.2,24.2,45.6,24.2,44.8z"/>
			<polygon fill="#C0C9C7" points="24.1,54.3 23,57.3 22.9,57.3 21.9,54.5 21,57.3 20.9,57.3 19.8,54.3 19.9,54.3 20.9,57.1 
				21.9,54.3 22,54.3 23,57.1 23.9,54.3 			"/>
			<path fill="#C0C9C7" d="M18.7,55.8L18.7,55.8l-2.7,0c0,0.9,0.6,1.4,1.4,1.4c0.5,0,0.9-0.3,1.1-0.6l0.1,0.1
				c-0.3,0.4-0.7,0.7-1.2,0.7c-0.8,0-1.5-0.6-1.5-1.6v0c0-0.9,0.6-1.6,1.4-1.6C18.3,54.2,18.7,55.1,18.7,55.8z M16.1,55.7h2.5
				c0-0.7-0.5-1.4-1.2-1.4C16.6,54.4,16.1,55,16.1,55.7z"/>
			<path fill="#00A77F" d="M15.5,47.3L15.5,47.3c0,0.9-0.7,1.5-2,1.5h-2.4v-5.6h2.3c0.6,0,1.2,0.2,1.5,0.5c0.2,0.2,0.4,0.5,0.4,0.9
				v0c0,0.7-0.4,1.2-1.1,1.3C14.9,46.1,15.5,46.6,15.5,47.3z M15.4,47.4L15.4,47.4c0-0.9-0.8-1.3-1.7-1.3h-2.4v2.6h2.2
				C14.7,48.7,15.4,48.2,15.4,47.4z M15.1,44.6L15.1,44.6c0-0.8-0.6-1.3-1.7-1.3h-2.1v2.5h2.2C14.4,45.9,15.1,45.5,15.1,44.6z"/>
			<polygon fill="#C0C9C7" points="14.3,53.1 14.3,57.3 14.2,57.3 11,53.3 11,57.3 10.9,57.3 10.9,53.1 11,53.1 14.2,57.1 
				14.2,53.1 			"/>
		</g>
		<g>
		</g>
	</g>
</g>
</svg>
